<?xml version="1.0" standalone="no"?>
<!DOCTYPE svg PUBLIC "-//W3C//DTD SVG 20010904//EN"
 "http://www.w3.org/TR/2001/REC-SVG-20010904/DTD/svg10.dtd">
<svg version="1.0" xmlns="http://www.w3.org/2000/svg"
 width="545.000000pt" height="545.000000pt" viewBox="0 0 545.000000 545.000000"
 preserveAspectRatio="xMidYMid meet">

<g transform="translate(0.000000,545.000000) scale(0.100000,-0.100000)"
fill="#000000" stroke="none">
<path d="M2649 5356 c-3 -3 -40 -12 -84 -21 -110 -21 -168 -36 -182 -47 -7 -6
-16 -7 -22 -4 -5 4 -30 -1 -56 -9 -25 -9 -60 -18 -78 -20 -38 -5 -187 -37
-272 -58 -33 -9 -103 -23 -155 -32 -52 -10 -126 -24 -165 -32 -38 -8 -92 -17
-120 -19 -27 -3 -54 -9 -60 -14 -6 -5 -35 -12 -65 -16 -30 -3 -71 -13 -90 -21
-19 -8 -71 -21 -115 -28 -44 -8 -107 -21 -140 -29 -56 -13 -87 -20 -235 -48
-30 -6 -86 -20 -125 -30 -38 -11 -87 -21 -107 -24 -80 -10 -140 -53 -154 -110
-7 -29 22 -143 43 -166 9 -10 27 -18 40 -18 13 0 56 -9 96 -21 39 -11 144 -38
232 -60 88 -21 194 -48 235 -59 41 -12 89 -22 105 -24 64 -8 190 -38 202 -48
17 -14 16 -50 -2 -118 -8 -30 -12 -63 -9 -73 3 -10 1 -24 -6 -31 -6 -8 -10
-18 -9 -22 1 -5 0 -16 -3 -24 -4 -8 -16 -60 -28 -115 -12 -55 -24 -105 -26
-112 -2 -7 -19 -19 -39 -27 -51 -22 -146 -86 -140 -96 3 -4 -8 -17 -25 -27
-47 -30 -120 -122 -156 -196 -18 -37 -37 -73 -42 -80 -6 -7 -13 -31 -17 -55
-3 -23 -13 -61 -21 -83 -7 -23 -14 -54 -14 -69 0 -20 -15 -42 -61 -86 -116
-112 -198 -269 -224 -424 -8 -52 -15 -111 -15 -130 0 -29 -7 -41 -42 -69 -42
-33 -128 -131 -128 -145 0 -4 -10 -22 -23 -39 -26 -36 -87 -201 -107 -289 -10
-46 -11 -83 -2 -180 12 -123 34 -195 99 -318 24 -45 100 -127 135 -146 38 -20
88 -76 88 -98 0 -33 40 -166 60 -200 10 -17 28 -49 40 -70 46 -84 157 -206
187 -206 5 0 16 -9 26 -20 9 -11 26 -20 37 -20 11 0 49 -18 83 -40 35 -21 90
-46 123 -54 166 -42 156 -37 187 -96 15 -30 36 -67 47 -82 11 -15 20 -30 20
-33 0 -2 16 -26 36 -52 56 -76 166 -167 239 -198 36 -15 65 -31 65 -36 0 -5 5
-9 11 -9 5 0 29 -9 53 -20 84 -38 181 -53 309 -48 69 3 123 10 130 17 6 6 25
11 42 11 27 0 84 25 155 69 15 9 51 30 81 48 56 33 71 47 164 148 l55 60 80
-87 c83 -89 154 -140 275 -197 67 -32 88 -39 200 -63 60 -12 293 -4 308 11 6
6 18 11 26 11 9 1 34 9 56 20 22 11 43 19 47 20 4 0 40 21 80 47 40 26 84 53
98 59 38 17 138 127 146 160 9 42 51 112 74 124 11 6 20 17 20 25 0 8 16 29
35 48 32 31 41 35 117 40 63 5 98 14 148 38 36 18 76 37 90 43 34 15 233 213
226 225 -8 13 29 94 54 116 11 10 20 24 20 30 0 7 7 18 15 25 8 7 15 23 15 36
0 12 5 26 10 29 6 3 10 26 10 51 0 34 6 51 24 69 13 13 22 26 19 29 -6 6 66
76 78 76 15 0 109 97 109 112 0 8 11 27 25 42 20 22 25 37 24 75 -1 29 4 56
14 72 9 14 22 59 28 100 11 72 9 121 -15 270 -7 39 -59 168 -76 188 -8 9 -24
34 -35 55 -26 51 -100 133 -136 152 -39 19 -45 51 -39 194 5 119 5 121 35 145
17 13 42 24 56 25 32 0 51 21 74 82 12 33 16 62 12 95 -4 27 -9 71 -12 98 -3
28 -10 66 -16 85 -5 19 -11 64 -13 100 -3 36 -5 67 -6 70 -1 3 -2 9 -1 13 2
10 -18 124 -26 147 -2 8 -6 50 -8 92 -2 42 -8 85 -14 95 -5 10 -12 26 -15 36
-3 9 -14 17 -25 17 -21 0 -37 15 -23 24 4 2 9 163 11 358 l3 353 49 52 c44 46
49 57 49 97 0 24 -4 55 -9 68 -15 39 -79 75 -161 92 -41 8 -113 25 -160 36
-47 12 -110 26 -140 30 -30 5 -109 21 -175 35 -66 14 -131 28 -145 30 -14 2
-50 11 -80 20 -73 22 -175 44 -197 43 -10 0 -58 11 -107 26 -48 14 -102 26
-120 26 -46 0 -341 65 -495 109 -36 11 -100 25 -141 31 -41 7 -97 19 -125 26
-81 23 -295 50 -306 40z m177 -231 c64 -14 202 -45 308 -69 105 -24 295 -65
421 -91 127 -26 318 -67 425 -92 176 -40 578 -123 597 -123 4 0 2 -5 -3 -10
-14 -14 -116 -20 -130 -9 -7 5 -61 20 -120 33 -60 12 -219 48 -354 79 -260 59
-558 123 -625 133 -22 3 -114 23 -205 44 -91 21 -221 51 -288 66 l-124 28 -86
-17 c-48 -10 -177 -38 -288 -62 -229 -50 -249 -54 -287 -60 -29 -4 -233 -48
-302 -65 -22 -5 -58 -12 -81 -15 -22 -3 -137 -28 -255 -56 -117 -27 -259 -59
-314 -71 -55 -11 -109 -25 -120 -31 -22 -12 -121 -10 -144 3 -15 8 53 26 214
55 50 9 187 38 305 64 118 27 319 69 445 95 236 49 882 189 893 195 1 0 55
-10 118 -24z m1832 -634 c4 -11 7 -143 6 -294 0 -262 -1 -276 -22 -316 -12
-23 -27 -70 -32 -104 -55 -353 -52 -351 -180 -151 -53 81 -203 240 -251 265
-35 17 -39 24 -39 57 0 20 -9 74 -20 120 -11 46 -20 92 -20 103 0 11 -8 45
-19 77 -33 100 -33 108 -9 137 20 22 34 26 120 34 53 5 145 21 205 35 278 66
251 62 261 37z m-3063 -806 c50 -8 167 -35 260 -60 94 -25 224 -59 290 -76
164 -42 255 -87 330 -163 65 -66 106 -140 124 -224 6 -29 11 -122 11 -206 l0
-153 -41 -7 c-37 -6 -43 -4 -62 21 -106 142 -289 232 -469 233 -31 0 -59 4
-62 8 -2 4 18 18 45 30 54 25 79 61 79 112 0 58 -30 94 -88 105 -42 8 -80 -11
-162 -80 -35 -30 -72 -55 -81 -55 -9 0 -31 16 -48 35 -23 27 -31 45 -31 75 0
27 -8 48 -26 69 -22 27 -33 31 -73 31 -64 0 -102 -37 -109 -108 -5 -60 9 -107
53 -171 l34 -49 -57 -7 c-178 -22 -320 -102 -437 -247 -30 -36 -31 -37 -120
-42 -49 -3 -114 -12 -144 -20 l-53 -15 6 42 c4 23 17 69 28 101 27 72 106 157
188 200 30 16 57 31 60 33 3 3 8 57 11 121 5 102 10 127 38 194 39 92 123 190
202 232 69 38 157 66 189 61 14 -3 66 -11 115 -20z m2427 7 c84 -24 155 -69
219 -141 94 -106 138 -230 139 -396 l0 -60 47 -25 c62 -33 167 -142 199 -207
14 -28 28 -71 31 -93 6 -42 6 -42 -23 -36 -73 15 -163 26 -210 26 -49 0 -53 2
-79 41 -47 67 -137 143 -216 181 -73 36 -191 68 -248 68 l-30 0 35 51 c96 143
70 279 -53 279 -59 0 -88 -31 -96 -102 -5 -45 -12 -58 -43 -85 l-37 -32 -28
20 c-16 11 -55 42 -86 70 -68 58 -106 68 -158 43 -94 -44 -78 -162 30 -217
l30 -15 -25 -6 c-14 -2 -56 -7 -95 -10 -86 -7 -148 -26 -227 -68 -59 -31 -159
-118 -190 -165 -12 -19 -21 -21 -51 -16 l-37 6 0 174 c0 188 12 249 65 332 64
102 201 191 355 230 41 11 173 45 293 76 180 46 254 63 417 94 3 1 35 -7 72
-17z m829 -353 c13 -124 19 -225 14 -235 -15 -35 -30 89 -49 416 -10 163 11
55 35 -181z m-2692 -553 c69 -23 144 -91 168 -154 24 -64 24 -216 0 -294 -10
-33 -38 -84 -65 -120 -107 -139 -261 -197 -524 -198 -283 -1 -452 108 -508
325 -19 71 -20 89 -10 165 14 109 40 161 103 211 102 81 143 88 502 85 235 -2
289 -5 334 -20z m1782 10 c120 -23 209 -96 250 -205 17 -47 20 -73 17 -157 -3
-91 -7 -107 -37 -168 -45 -88 -138 -176 -217 -206 -118 -44 -379 -52 -519 -15
-148 39 -260 126 -322 253 -37 74 -38 78 -37 187 0 125 11 159 69 224 47 51
105 78 198 89 113 15 521 13 598 -2z m669 -313 c127 -34 234 -128 302 -264 47
-95 62 -177 55 -287 -8 -110 -26 -170 -78 -252 l-42 -65 -23 53 c-35 79 -62
112 -110 133 -34 15 -48 17 -71 8 -81 -30 -89 -77 -35 -196 54 -117 64 -209
34 -310 -49 -162 -181 -296 -347 -353 l-58 -20 6 68 c8 82 -12 218 -43 289
-27 64 -64 99 -112 108 -33 6 -41 3 -68 -23 -35 -35 -39 -74 -15 -143 25 -71
30 -175 11 -267 -18 -88 -54 -183 -55 -145 -1 34 -40 131 -64 159 -28 32 -96
43 -130 21 -13 -8 -30 -29 -37 -47 -11 -27 -10 -40 9 -103 11 -40 21 -89 21
-110 0 -61 24 -106 60 -113 16 -4 30 -10 30 -15 0 -5 -26 -35 -59 -67 -120
-118 -317 -187 -470 -165 -42 7 -98 19 -126 28 -196 65 -355 258 -371 449 l-7
72 59 13 c143 32 314 112 379 177 47 47 49 102 6 145 -45 45 -74 43 -178 -13
-46 -25 -111 -49 -170 -63 l-94 -22 3 251 3 251 28 54 c40 76 108 144 180 182
l62 32 95 -51 c147 -79 211 -93 431 -99 238 -7 311 6 458 79 220 109 353 307
368 549 6 85 7 88 32 92 31 4 58 0 131 -20z m-3629 -83 c8 -112 29 -178 89
-285 88 -152 255 -268 455 -316 80 -19 111 -20 280 -16 236 6 304 23 477 123
l47 27 56 -27 c74 -37 146 -108 187 -187 l33 -64 3 -247 3 -246 -38 9 c-21 5
-60 14 -88 20 -27 7 -89 31 -137 55 -105 52 -138 55 -179 15 -42 -42 -41 -97
3 -146 41 -47 222 -135 340 -167 100 -26 103 -31 88 -121 -12 -77 -55 -170
-109 -236 -104 -128 -208 -187 -376 -213 -152 -24 -349 43 -474 161 -61 56
-75 81 -46 81 9 0 27 11 40 25 21 20 25 34 25 82 1 32 9 83 20 113 22 64 24
90 9 123 -33 72 -147 55 -191 -28 -6 -10 -19 -41 -28 -69 -17 -46 -18 -48 -30
-27 -48 90 -59 295 -21 397 24 63 22 87 -10 127 -25 32 -75 36 -119 10 -66
-39 -116 -206 -108 -358 l4 -83 -39 14 c-145 51 -274 163 -333 288 -31 65 -37
90 -42 166 -5 98 10 162 53 229 34 52 39 84 21 123 -16 34 -60 66 -83 62 -7
-1 -22 -2 -33 -3 -31 -2 -84 -56 -120 -122 l-33 -62 -19 24 c-35 45 -78 139
-94 206 -39 165 19 371 140 501 75 81 214 143 311 139 l60 -2 6 -95z m1629
-134 l0 -235 -56 34 c-31 19 -59 36 -61 39 -2 2 12 36 31 75 42 83 66 173 66
252 0 49 5 69 17 69 2 0 3 -105 3 -234z m246 34 c8 -36 30 -96 49 -133 l36
-68 -32 -17 c-17 -9 -44 -28 -60 -40 l-29 -24 1 239 c1 188 4 224 11 173 5
-36 16 -94 24 -130z"/>
<path d="M1892 2741 c-73 -19 -128 -104 -118 -184 11 -98 82 -162 179 -161 95
1 184 101 173 194 -7 54 -45 114 -86 135 -37 19 -105 26 -148 16z"/>
<path d="M3416 2740 c-38 -12 -85 -57 -102 -97 -43 -100 25 -229 131 -249 75
-14 179 53 206 134 42 126 -101 255 -235 212z"/>
</g>
</svg>
